<svg width="88" height="60" viewBox="0 0 88 60" fill="none" xmlns="http://www.w3.org/2000/svg">
<path d="M26.4 30C34.9113 30 41.8 23.2902 41.8 15C41.8 6.70982 34.9113 0 26.4 0C17.8888 0 11 6.70982 11 15C11 23.2902 17.8888 30 26.4 30ZM36.96 34.2857H35.8188C32.9588 35.625 29.7825 36.4286 26.4 36.4286C23.0175 36.4286 19.855 35.625 16.9813 34.2857H15.84C7.095 34.2857 0 41.1964 0 49.7143V53.5714C0 57.1205 2.95625 60 6.6 60H46.2C49.8438 60 52.8 57.1205 52.8 53.5714V49.7143C52.8 41.1964 45.705 34.2857 36.96 34.2857ZM66 30C73.2875 30 79.2 24.2411 79.2 17.1429C79.2 10.0446 73.2875 4.28571 66 4.28571C58.7125 4.28571 52.8 10.0446 52.8 17.1429C52.8 24.2411 58.7125 30 66 30ZM72.6 34.2857H72.0775C70.1663 34.9286 68.145 35.3571 66 35.3571C63.855 35.3571 61.8337 34.9286 59.9225 34.2857H59.4C56.595 34.2857 54.01 35.0759 51.7412 36.3482C55.0962 39.8705 57.2 44.5446 57.2 49.7143V54.8571C57.2 55.1518 57.1313 55.433 57.1175 55.7143H81.4C85.0438 55.7143 88 52.8348 88 49.2857C88 40.9955 81.1113 34.2857 72.6 34.2857V34.2857Z" fill="url(#paint0_linear)"/>
<defs>
<linearGradient id="paint0_linear" x1="44" y1="0" x2="44" y2="60" gradientUnits="userSpaceOnUse">
<stop stop-color="#70FFCB"/>
<stop offset="1" stop-color="#65DAFF"/>
</linearGradient>
</defs>
</svg>
