<svg width="80" height="60" viewBox="0 0 80 60" fill="none" xmlns="http://www.w3.org/2000/svg">
<path d="M79.9437 18.9601C79.9347 18.8427 79.924 18.7253 79.9117 18.6081C79.557 13.5649 77.3066 8.84277 73.6128 5.39084C69.919 1.93891 65.0555 0.0130101 59.9998 0.000203296H19.9999C14.8733 -0.0229672 9.93588 1.9353 6.21878 5.46605C2.50168 8.99681 0.292294 13.8271 0.0519999 18.9481C0.012 19.2641 0 19.5921 0 19.9601V46C0 49.7 1.492 53.312 4.08799 55.904C6.72322 58.522 10.2853 59.994 14 60C21.1999 60 24.0159 56 27.9999 48C28.5839 46.832 31.9679 40.0001 39.9999 40.0001C47.9838 40.0001 51.4118 46.828 51.9998 48C56.0158 56 58.7998 60 65.9998 60C69.6998 60 73.3117 58.508 75.9037 55.912C78.5218 53.2768 79.9938 49.7147 79.9997 46V20.0001C79.9997 19.6201 79.9837 19.2801 79.9437 18.9601ZM19.9999 28.1241C18.9346 28.1482 17.8751 27.9592 16.8838 27.5682C15.8925 27.1772 14.9893 26.5922 14.2273 25.8473C13.4652 25.1025 12.8596 24.2129 12.4461 23.2308C12.0325 22.2486 11.8194 21.1938 11.8191 20.1282C11.8188 19.0626 12.0315 18.0076 12.4445 17.0253C12.8576 16.043 13.4627 15.1531 14.2244 14.4079C14.9861 13.6626 15.889 13.0771 16.8801 12.6856C17.8712 12.2941 18.9306 12.1046 19.9959 12.1282C22.0862 12.1744 24.0753 13.0371 25.5374 14.5315C26.9995 16.026 27.8185 18.0334 27.819 20.1242C27.8196 22.2149 27.0016 24.2228 25.5402 25.718C24.0788 27.2132 22.0901 28.0768 19.9999 28.1241ZM59.9998 8.12418C61.0607 8.12418 62.0781 8.5456 62.8282 9.29574C63.5784 10.0459 63.9998 11.0633 63.9998 12.1242C63.9998 13.185 63.5784 14.2024 62.8282 14.9526C62.0781 15.7027 61.0607 16.1241 59.9998 16.1241C58.9389 16.1241 57.9215 15.7027 57.1714 14.9526C56.4212 14.2024 55.9998 13.185 55.9998 12.1242C55.9998 11.0633 56.4212 10.0459 57.1714 9.29574C57.9215 8.5456 58.9389 8.12418 59.9998 8.12418V8.12418ZM51.9998 24.1241C50.939 24.1241 49.9215 23.7027 49.1714 22.9526C48.4213 22.2024 47.9998 21.185 47.9998 20.1241C47.9998 19.0633 48.4213 18.0459 49.1714 17.2957C49.9215 16.5456 50.939 16.1241 51.9998 16.1241C53.0607 16.1241 54.0781 16.5456 54.8282 17.2957C55.5784 18.0459 55.9998 19.0633 55.9998 20.1241C55.9998 21.185 55.5784 22.2024 54.8282 22.9526C54.0781 23.7027 53.0607 24.1241 51.9998 24.1241ZM59.9998 32.1241C58.9389 32.1241 57.9215 31.7027 57.1714 30.9525C56.4212 30.2024 55.9998 29.185 55.9998 28.1241C55.9998 27.0632 56.4212 26.0458 57.1714 25.2957C57.9215 24.5455 58.9389 24.1241 59.9998 24.1241C61.0607 24.1241 62.0781 24.5455 62.8282 25.2957C63.5784 26.0458 63.9998 27.0632 63.9998 28.1241C63.9998 29.185 63.5784 30.2024 62.8282 30.9525C62.0781 31.7027 61.0607 32.1241 59.9998 32.1241ZM67.9998 24.1241C66.9389 24.1241 65.9215 23.7027 65.1713 22.9526C64.4212 22.2024 63.9998 21.185 63.9998 20.1241C63.9998 19.0633 64.4212 18.0459 65.1713 17.2957C65.9215 16.5456 66.9389 16.1241 67.9998 16.1241C69.0606 16.1241 70.078 16.5456 70.8282 17.2957C71.5783 18.0459 71.9998 19.0633 71.9998 20.1241C71.9998 21.185 71.5783 22.2024 70.8282 22.9526C70.078 23.7027 69.0606 24.1241 67.9998 24.1241Z" fill="url(#paint0_linear)"/>
<defs>
<linearGradient id="paint0_linear" x1="39.9999" y1="0" x2="39.9999" y2="60" gradientUnits="userSpaceOnUse">
<stop stop-color="#70FFCB"/>
<stop offset="1" stop-color="#65DAFF"/>
</linearGradient>
</defs>
</svg>
