<svg width="60" height="60" viewBox="0 0 60 60" fill="none" xmlns="http://www.w3.org/2000/svg">
<path d="M30 60C25.9375 60 22.0508 59.209 18.3398 57.627C14.6289 56.0449 11.4355 53.916 8.75977 51.2402C6.08398 48.5645 3.95508 45.3711 2.37305 41.6602C0.791016 37.9492 0 34.0625 0 30C0 25.9375 0.791016 22.0508 2.37305 18.3398C3.95508 14.6289 6.08398 11.4355 8.75977 8.75977C11.4355 6.08398 14.6289 3.95508 18.3398 2.37305C22.0508 0.791016 25.9375 0 30 0C34.0625 0 37.9492 0.791016 41.6602 2.37305C45.3711 3.95508 48.5645 6.08398 51.2402 8.75977C53.916 11.4355 56.0449 14.6289 57.627 18.3398C59.209 22.0508 60 25.9375 60 30C60 34.0625 59.209 37.9492 57.627 41.6602C56.0449 45.3711 53.916 48.5645 51.2402 51.2402C48.5645 53.916 45.3711 56.0449 41.6602 57.627C37.9492 59.209 34.0625 60 30 60ZM33.75 7.79297V15.1172C33.75 16.1328 33.3887 17.0117 32.666 17.7539C31.9434 18.4961 31.0547 18.8672 30 18.8672C28.9453 18.8672 28.0566 18.4961 27.334 17.7539C26.6113 17.0117 26.25 16.1328 26.25 15.1172V7.79297C21.5625 8.57422 17.5195 10.6641 14.1211 14.0625C10.7227 17.4609 8.63281 21.5234 7.85156 26.25H15C16.0547 26.25 16.9434 26.6113 17.666 27.334C18.3887 28.0566 18.75 28.9355 18.75 29.9707C18.75 31.0059 18.3887 31.8945 17.666 32.6367C16.9434 33.3789 16.0547 33.75 15 33.75H7.85156C8.63281 38.4375 10.7227 42.4805 14.1211 45.8789C17.5195 49.2773 21.5625 51.3672 26.25 52.1484V45C26.25 43.9844 26.6113 43.1152 27.334 42.3926C28.0566 41.6699 28.9453 41.3086 30 41.3086C31.0547 41.3086 31.9434 41.6699 32.666 42.3926C33.3887 43.1152 33.75 43.9844 33.75 45V52.1484C38.4375 51.3672 42.4805 49.2773 45.8789 45.8789C49.2773 42.4805 51.3672 38.4375 52.1484 33.75H44.9414C43.9258 33.75 43.0566 33.3789 42.334 32.6367C41.6113 31.8945 41.25 31.0059 41.25 29.9707C41.25 28.9355 41.6113 28.0566 42.334 27.334C43.0566 26.6113 43.9258 26.25 44.9414 26.25H52.1484C51.3672 21.5234 49.2773 17.4609 45.8789 14.0625C42.4805 10.6641 38.4375 8.57422 33.75 7.79297Z" fill="url(#paint0_linear)"/>
<defs>
<linearGradient id="paint0_linear" x1="30" y1="0" x2="30" y2="60" gradientUnits="userSpaceOnUse">
<stop stop-color="#70FFCB"/>
<stop offset="1" stop-color="#65DAFF"/>
</linearGradient>
</defs>
</svg>
