<svg width="22" height="23" viewBox="0 0 22 23" fill="none" xmlns="http://www.w3.org/2000/svg">
<path d="M21 13.7646H20C20 9.32631 16.87 5.73664 13 5.73664H12V4.28013C12.3041 4.07877 12.5566 3.78912 12.7322 3.44032C12.9077 3.09152 13.0001 2.69586 13 2.29313C12.9999 1.8904 12.9074 1.49479 12.7317 1.14609C12.556 0.797396 12.3033 0.507898 11.9991 0.306712C11.6949 0.105525 11.3499 -0.000257645 10.9987 4.71234e-07C10.6476 0.000258588 10.3026 0.106549 9.99867 0.308182C9.69469 0.509816 9.44236 0.799685 9.26705 1.14864C9.09174 1.4976 8.99964 1.89334 9 2.29607C9 3.14474 9.4 3.8902 10 4.28013V5.73664H9C5.13 5.73664 2 9.32631 2 13.7646H1C0.45 13.7646 0 14.2807 0 14.9115V18.3521C0 18.9829 0.45 19.4989 1 19.4989H2V20.6458C2 21.2541 2.21071 21.8375 2.58579 22.2677C2.96086 22.6979 3.46957 22.9395 4 22.9395H18C19.11 22.9395 20 21.9188 20 20.6458V19.4989H21C21.55 19.4989 22 18.9829 22 18.3521V14.9115C22 14.2807 21.55 13.7646 21 13.7646ZM6.5 18.3521C5.83696 18.3521 5.20107 18.05 4.73223 17.5123C4.26339 16.9746 4 16.2454 4 15.4849C4 14.5445 4.4 13.7188 5 13.1912L8.83 16.4942C8.5 17.5722 7.57 18.3521 6.5 18.3521ZM15.5 18.3521C14.43 18.3521 13.5 17.5722 13.17 16.4942L17 13.1912C17.6 13.7188 18 14.5445 18 15.4849C18 16.2454 17.7366 16.9746 17.2678 17.5123C16.7989 18.05 16.163 18.3521 15.5 18.3521Z" fill="white"/>
</svg>
